<?xml version="1.0" standalone="no"?><!DOCTYPE svg PUBLIC "-//W3C//DTD SVG 1.1//EN" "http://www.w3.org/Graphics/SVG/1.1/DTD/svg11.dtd"><svg t="1525398184857" class="icon" style="" viewBox="0 0 1024 1024" version="1.1" xmlns="http://www.w3.org/2000/svg" p-id="707" xmlns:xlink="http://www.w3.org/1999/xlink" width="200" height="200"><defs><style type="text/css"></style></defs><path d="M3.42441 458.1376A513.536 513.536 0 0 1 486.85481 0.6144a530.3296 530.3296 0 0 1 63.8976 0.8192A36.0448 36.0448 0 0 1 584.33961 37.1712a35.6352 35.6352 0 0 1-37.9904 35.7376C535.18761 71.68 524.02601 71.68 512.65961 71.68a440.32 440.32 0 1 0 439.0912 473.9072A35.9424 35.9424 0 0 1 987.38601 512a36.0448 36.0448 0 0 1 35.84 38.912A512 512 0 1 1 3.42441 458.1376z" p-id="708"></path><path d="M804.70441 136.192m-35.84 0a35.84 35.84 0 1 0 71.68 0 35.84 35.84 0 1 0-71.68 0Z" p-id="709"></path><path d="M943.14921 309.1456m-35.84 0a35.84 35.84 0 1 0 71.68 0 35.84 35.84 0 1 0-71.68 0Z" p-id="710"></path><path d="M643.11721 486.2976a170.9056 170.9056 0 0 0 65.3312-126.6688c3.6864-99.84-79.5648-182.1696-182.3744-182.1696h-100.5568a80.384 80.384 0 0 0-81.92 78.848v507.904a80.384 80.384 0 0 0 81.92 78.848h112.64c107.7248 0 199.68-80.5888 203.776-184.32a189.7472 189.7472 0 0 0-98.816-172.4416zM418.65641 289.1776a40.2432 40.2432 0 0 1 40.96-39.424h66.4576a105.1648 105.1648 0 0 1 107.008 112.64c-5.0176 53.8624-54.4768 93.9008-110.592 93.9008H418.65641z m250.7776 374.0672C663.18761 727.04 604.81961 774.0416 538.87401 774.0416h-82.6368a40.1408 40.1408 0 0 1-40.96-39.424V528.896h127.2832a124.6208 124.6208 0 0 1 126.8736 134.3488z" p-id="711"></path></svg>